<?xml version="1.0" standalone="no"?>
<!DOCTYPE svg PUBLIC "-//W3C//DTD SVG 20010904//EN"
 "http://www.w3.org/TR/2001/REC-SVG-20010904/DTD/svg10.dtd">
<svg version="1.0" xmlns="http://www.w3.org/2000/svg"
 width="250.000000pt" height="278.000000pt" viewBox="0 0 250.000000 278.000000"
 preserveAspectRatio="xMidYMid meet">
<metadata>
Created by potrace 1.16, written by Peter Selinger 2001-2019
</metadata>
<g transform="translate(0.000000,278.000000) scale(0.100000,-0.100000)"
fill="#ecc67e" stroke="none">
<path d="M443 2452 c-8 -5 3 -61 39 -202 27 -107 52 -205 54 -218 3 -12 21
-84 40 -160 20 -75 42 -164 50 -197 7 -33 22 -95 32 -137 11 -43 17 -78 14
-78 -2 0 0 -6 6 -12 5 -7 13 -33 18 -58 9 -51 11 -59 14 -62 1 -2 4 -16 6 -33
3 -16 9 -43 15 -60 6 -16 13 -43 16 -60 3 -16 12 -55 20 -85 14 -53 21 -80 42
-165 18 -75 27 -99 40 -103 7 -2 40 25 74 59 35 35 157 154 272 264 115 110
237 227 270 260 33 33 154 150 270 260 115 110 235 226 267 258 53 53 65 82
35 85 -7 0 -82 21 -167 46 -85 26 -180 53 -210 62 -30 8 -91 26 -135 40 -44
13 -143 42 -220 63 -77 22 -203 58 -280 81 -118 35 -278 80 -335 95 -8 2 -60
17 -115 34 -108 33 -114 34 -132 23z m206 -88 c85 -25 158 -48 161 -51 5 -5
-229 -232 -240 -233 -3 0 -24 74 -46 165 -23 91 -39 165 -36 165 2 0 75 -21
161 -46z m548 -158 c6 -3 -42 -58 -108 -122 -65 -65 -121 -116 -123 -113 -3 2
-21 69 -41 149 -20 80 -38 152 -41 161 -4 14 23 9 148 -27 84 -24 158 -46 165
-48z m-309 -86 c22 -88 35 -160 30 -160 -8 0 -271 73 -307 86 -9 3 27 44 105
119 65 63 122 114 125 115 4 0 25 -72 47 -160z m476 39 c39 -11 109 -32 156
-46 l85 -26 -125 -118 c-69 -64 -126 -115 -127 -111 -25 81 -78 322 -70 322 5
0 42 -9 81 -21z m-86 -151 c22 -90 40 -163 39 -164 -3 -2 -311 88 -317 93 -5
4 221 232 231 233 4 0 25 -73 47 -162z m571 11 l153 -44 -123 -118 c-67 -65
-126 -114 -129 -110 -7 8 -80 294 -80 314 0 6 6 9 13 6 6 -2 81 -24 166 -48z
m-174 -138 c20 -79 34 -145 32 -147 -4 -5 -306 82 -314 90 -4 3 47 57 113 120
95 91 120 111 126 97 4 -9 24 -81 43 -160z m-927 87 c81 -22 150 -44 154 -47
4 -4 -46 -60 -112 -126 -66 -65 -121 -117 -124 -115 -10 11 -82 330 -74 330 5
0 75 -19 156 -42z m415 -119 l148 -42 -123 -117 c-73 -70 -126 -113 -129 -106
-4 6 -21 72 -38 146 -18 74 -35 143 -38 153 -4 15 -1 18 14 13 10 -3 85 -24
166 -47z m-180 -117 c20 -86 37 -162 37 -168 0 -9 -302 70 -320 83 -4 4 231
243 240 243 3 0 22 -71 43 -158z m617 -9 c52 -14 97 -28 99 -30 6 -5 -39 -51
-150 -154 l-97 -89 -37 157 c-21 87 -40 163 -42 170 -3 8 17 6 64 -8 37 -10
111 -31 163 -46z m-223 -115 c22 -90 39 -164 38 -165 -2 -4 -319 88 -325 94
-5 5 230 232 242 233 3 0 24 -73 45 -162z m-528 -43 c85 -25 156 -46 157 -48
1 -1 -53 -55 -121 -119 l-123 -117 -36 147 c-20 81 -39 155 -42 165 -3 9 -2
17 3 17 4 0 77 -20 162 -45z m454 -131 c53 -15 97 -31 97 -35 0 -3 -54 -57
-119 -118 l-120 -112 -10 38 c-20 78 -71 282 -71 287 0 4 19 -1 223 -60z
m-219 -106 c20 -81 36 -152 36 -156 0 -9 -308 74 -320 85 -3 3 49 56 115 118
66 63 123 110 126 107 3 -4 23 -73 43 -154z m-121 -159 c81 -23 147 -45 147
-48 0 -4 -56 -59 -124 -124 -98 -92 -126 -113 -130 -100 -7 24 -76 314 -76
320 0 2 8 2 18 -1 9 -3 83 -24 165 -47z"/>
<path d="M587 793 c-4 -3 -7 -89 -7 -190 0 -174 1 -183 19 -183 26 0 33 26 30
105 -2 55 1 69 19 88 23 25 77 34 97 17 9 -7 13 -41 14 -100 2 -105 6 -120 32
-113 17 5 19 15 19 110 0 102 -1 105 -29 134 -36 35 -86 39 -124 9 -14 -11
-27 -20 -29 -20 -2 0 -2 18 0 40 8 77 -14 131 -41 103z"/>
<path d="M391 696 c-43 -44 -48 -73 -10 -61 18 6 19 0 19 -87 0 -117 11 -138
71 -134 46 4 62 15 54 38 -5 11 -15 15 -35 12 -39 -7 -52 20 -48 103 l3 67 35
1 c28 0 36 4 38 22 3 19 -2 22 -35 25 -32 2 -38 7 -39 26 -1 12 -3 25 -6 27
-2 3 -24 -15 -47 -39z"/>
<path d="M897 683 c-4 -3 -7 -64 -7 -135 0 -128 0 -129 23 -126 21 3 22 8 25
94 3 88 4 92 30 104 15 7 35 12 44 11 22 -3 41 32 26 47 -18 18 -42 15 -71 -8
l-26 -20 -6 20 c-6 20 -25 26 -38 13z"/>
<path d="M1118 680 c-58 -34 -78 -155 -35 -217 37 -55 138 -69 194 -27 33 25
23 48 -15 39 -59 -12 -112 -8 -132 10 -40 36 -26 45 70 45 105 0 117 9 94 75
-19 56 -58 85 -114 85 -25 0 -53 -5 -62 -10z"/>
<path d="M1404 672 c-70 -58 -72 -176 -5 -236 41 -37 191 -22 191 19 0 22 -12
24 -72 16 -33 -4 -64 -3 -75 2 -20 11 -43 37 -43 49 0 4 40 8 89 8 105 0 116
7 100 65 -17 60 -61 95 -118 95 -29 -1 -54 -7 -67 -18z"/>
<path d="M1791 676 c-9 -11 -11 -60 -9 -170 3 -159 0 -174 -36 -160 -16 6 -28
-19 -20 -41 9 -23 67 -19 90 6 17 19 19 40 22 186 2 116 0 168 -9 179 -15 18
-23 18 -38 0z"/>
<path d="M1949 683 c-18 -4 -49 -54 -49 -77 0 -33 32 -66 74 -76 66 -17 86
-28 80 -44 -7 -18 -81 -26 -112 -13 -17 8 -26 7 -39 -5 -14 -15 -13 -18 13
-34 17 -12 49 -19 81 -21 47 -1 57 2 83 29 17 16 30 38 30 48 0 34 -45 75 -99
89 -56 14 -68 25 -51 46 8 10 27 12 63 10 68 -6 88 6 63 34 -15 16 -30 21 -70
20 -28 -1 -58 -3 -67 -6z"/>
</g>
</svg>
